<?xml version="1.0" ?><svg viewBox="0 0 512 512" xmlns="http://www.w3.org/2000/svg"><defs><style>.\38 5491b99-a8bd-4014-b1cf-14e4736f1692{fill:#b6bccf;}.\37 dfb2be9-89b2-4ffa-8ced-4ed68063a23f,.\38 5491b99-a8bd-4014-b1cf-14e4736f1692,.\39 223c8bd-9ddd-4b23-9f9b-c268715c79a2,.a2255bae-1309-4ef7-b5cc-dfc28f5da616,.e9023130-cbc8-4b05-9898-e42f0b20a7ab{fill-rule:evenodd;}.e9023130-cbc8-4b05-9898-e42f0b20a7ab{fill:#8690af;}.\32 cfaa2e1-28d4-431d-b2f1-9bf27fb36058{fill:#ffc144;}.\37 dfb2be9-89b2-4ffa-8ced-4ed68063a23f{fill:#cfd3df;}.a2255bae-1309-4ef7-b5cc-dfc28f5da616{fill:#9ea6bf;}.\39 223c8bd-9ddd-4b23-9f9b-c268715c79a2{fill:#ffcd69;}</style></defs><title/><g data-name="01 Steering Wheel" id="4b35d793-bb6b-4ff0-a61e-bd11285ed370"><path class="85491b99-a8bd-4014-b1cf-14e4736f1692" d="M256,172.75A83.25,83.25,0,1,1,172.75,256,83.25,83.25,0,0,1,256,172.75Zm-85.39-5.88a87.54,87.54,0,0,1-63,26.69H87V318.44h20.6a87.54,87.54,0,0,1,63,26.69,119.87,119.87,0,0,0,170.79,0,87.54,87.54,0,0,1,63-26.69H425V193.56H404.4a87.54,87.54,0,0,1-63-26.69,119.87,119.87,0,0,0-170.79,0Z"/><path class="e9023130-cbc8-4b05-9898-e42f0b20a7ab" d="M339.25,256A83.25,83.25,0,1,0,256,339.25,83.25,83.25,0,0,0,339.25,256ZM256,235.19A20.81,20.81,0,1,1,235.19,256,20.81,20.81,0,0,1,256,235.19Z"/><circle class="2cfaa2e1-28d4-431d-b2f1-9bf27fb36058" cx="256" cy="256" r="20.81"/><path class="e9023130-cbc8-4b05-9898-e42f0b20a7ab" d="M425,193.56V318.44a20.81,20.81,0,0,0,41.63,0V193.56a20.81,20.81,0,0,0-41.63,0Z"/><path class="85491b99-a8bd-4014-b1cf-14e4736f1692" d="M466.63,230v52h35A10.44,10.44,0,0,0,512,271.61V240.39A10.44,10.44,0,0,0,501.59,230Z"/><path class="e9023130-cbc8-4b05-9898-e42f0b20a7ab" d="M87,318.44V193.56a20.81,20.81,0,0,0-41.63,0V318.44a20.81,20.81,0,0,0,41.63,0Z"/><path class="85491b99-a8bd-4014-b1cf-14e4736f1692" d="M45.37,282V230h-35A10.44,10.44,0,0,0,0,240.39v31.22A10.44,10.44,0,0,0,10.41,282Z"/><path class="7dfb2be9-89b2-4ffa-8ced-4ed68063a23f" d="M256,172.75a83.25,83.25,0,0,1,0,166.5v41.63a119.51,119.51,0,0,0,85.39-35.75,87.54,87.54,0,0,1,63-26.69H425V193.56H404.4a87.54,87.54,0,0,1-63-26.69A119.51,119.51,0,0,0,256,131.12Z"/><path class="a2255bae-1309-4ef7-b5cc-dfc28f5da616" d="M339.25,256A83.25,83.25,0,0,0,256,172.75v62.44a20.81,20.81,0,1,1,0,41.63v62.44A83.25,83.25,0,0,0,339.25,256Z"/><path class="9223c8bd-9ddd-4b23-9f9b-c268715c79a2" d="M276.81,256A20.81,20.81,0,0,0,256,235.19v41.63A20.81,20.81,0,0,0,276.81,256Z"/><path class="a2255bae-1309-4ef7-b5cc-dfc28f5da616" d="M425,193.56V318.44a20.81,20.81,0,0,0,41.63,0V193.56a20.81,20.81,0,0,0-41.63,0Z"/><path class="7dfb2be9-89b2-4ffa-8ced-4ed68063a23f" d="M466.63,230v52h35A10.44,10.44,0,0,0,512,271.61V240.39A10.44,10.44,0,0,0,501.59,230Z"/><path class="85491b99-a8bd-4014-b1cf-14e4736f1692" d="M285.44,285.43a10.41,10.41,0,1,1,14.72,14.71h0a10.41,10.41,0,0,1-14.71-14.72ZM256,297.63a10.41,10.41,0,0,1,0,20.81h0a10.41,10.41,0,0,1,0-20.81Zm-29.44-12.19a10.41,10.41,0,1,1-14.71,14.72h0a10.41,10.41,0,1,1,14.72-14.71ZM214.37,256a10.41,10.41,0,0,1-20.81,0h0a10.41,10.41,0,0,1,20.81,0Zm12.19-29.44a10.41,10.41,0,0,1-14.72-14.71h0a10.41,10.41,0,1,1,14.71,14.72ZM256,214.37a10.41,10.41,0,0,1,0-20.81h0a10.41,10.41,0,0,1,0,20.81Zm29.44,12.19a10.41,10.41,0,0,1,14.71-14.72h0a10.41,10.41,0,0,1-14.72,14.71ZM297.63,256a10.41,10.41,0,0,1,20.81,0h0a10.41,10.41,0,0,1-20.81,0Z"/><path class="7dfb2be9-89b2-4ffa-8ced-4ed68063a23f" d="M285.44,285.43a10.41,10.41,0,1,1,14.72,14.71h0a10.41,10.41,0,0,1-14.71-14.72ZM256,193.56v20.81h0a10.41,10.41,0,0,0,0-20.81Zm0,104.06v20.81h0a10.41,10.41,0,0,0,0-20.81Zm29.43-71.06a10.41,10.41,0,0,1,14.71-14.72h0a10.41,10.41,0,0,1-14.72,14.71ZM297.63,256a10.41,10.41,0,0,1,20.81,0h0a10.41,10.41,0,0,1-20.81,0Z"/></g></svg>