<?xml version="1.0" ?><svg viewBox="0 0 512 512" xmlns="http://www.w3.org/2000/svg"><defs><style>.da3a6d81-fa3c-4993-a068-f58699e10928{fill:#9ea6bf;}.\32 99febef-299d-4e98-b34a-75c4f511fdc5,.\32 a76ade8-4281-45b6-9851-0a2ec625a62f,.da3a6d81-fa3c-4993-a068-f58699e10928,.df74cab4-e60b-4863-b0d6-704480a0f536,.f0154257-3b06-488c-8985-f5f49b7c4bdf{fill-rule:evenodd;}.\32 99febef-299d-4e98-b34a-75c4f511fdc5{fill:#8690af;}.\37 5147be0-5e61-4439-b382-4ed6da52e55c,.f0154257-3b06-488c-8985-f5f49b7c4bdf{fill:#ffc144;}.\32 a76ade8-4281-45b6-9851-0a2ec625a62f,.\35 39bce64-3290-44c5-8107-a2dfcbd8cf03{fill:#ffcd69;}.df74cab4-e60b-4863-b0d6-704480a0f536{fill:#b6bccf;}</style></defs><title/><g data-name="01 Steering Wheel" id="8eb89076-6707-4fd9-84cd-134b4f425b15"><path class="da3a6d81-fa3c-4993-a068-f58699e10928" d="M232,261a40.57,40.57,0,0,1,10.91,4.52l54.23-54.23a10,10,0,0,1,14.14,14.14l-54.23,54.23a40.58,40.58,0,0,1,4.53,10.91H338.3a10,10,0,0,1,0,20H261.61a40.58,40.58,0,0,1-4.53,10.91l54.23,54.23a10,10,0,0,1-14.14,14.14L242.94,335.6A40.57,40.57,0,0,1,232,340.13v76.69a10,10,0,0,1-20,0V340.13a40.58,40.58,0,0,1-10.91-4.53l-54.23,54.23a10,10,0,0,1-14.14-14.14L187,321.46a40.58,40.58,0,0,1-4.53-10.91H105.76a10,10,0,1,1,0-20h76.69A40.58,40.58,0,0,1,187,279.63L132.74,225.4a10,10,0,0,1,14.14-14.14l54.23,54.23A40.58,40.58,0,0,1,212,261V184.27a10,10,0,0,1,20,0V261Zm4.72,24.86a20.82,20.82,0,1,0,6.1,14.72A20.75,20.75,0,0,0,236.75,285.83Z"/><path class="299febef-299d-4e98-b34a-75c4f511fdc5" d="M232,261a40.57,40.57,0,0,1,10.91,4.52l54.23-54.23a10,10,0,0,1,14.14,14.14l-54.23,54.23a40.58,40.58,0,0,1,4.53,10.91H338.3a10,10,0,0,1,0,20H261.61a40.58,40.58,0,0,1-4.53,10.91l54.23,54.23a10,10,0,0,1-14.14,14.14L242.94,335.6A40.57,40.57,0,0,1,232,340.13v76.69a10,10,0,0,1-10,10V321.36a20.82,20.82,0,1,0,0-41.63V174.27a10,10,0,0,1,10,10Z"/><rect class="75147be0-5e61-4439-b382-4ed6da52e55c" height="134.79" rx="11.23" ry="11.23" width="44.93" x="456.5" y="77.86"/><path class="f0154257-3b06-488c-8985-f5f49b7c4bdf" d="M200.42,90.18,255.56,35a11.26,11.26,0,0,0,0-15.88L239.68,3.28a11.27,11.27,0,0,0-15.88,0L144.37,82.7a11.26,11.26,0,0,0,0,15.88l3.78,3.78A210.19,210.19,0,0,1,200.29,90.2Z"/><path class="da3a6d81-fa3c-4993-a068-f58699e10928" d="M255.56,35,200.42,90.18A214.06,214.06,0,0,1,222,89.09h87.58Z"/><path class="299febef-299d-4e98-b34a-75c4f511fdc5" d="M263.1,201.41l29,29a99.15,99.15,0,1,1-70.1-29ZM309.61,89.09H222a214.06,214.06,0,0,0-21.61,1.09A212,212,0,1,0,417.27,219.84q-3.91-9.43-8.66-18.42H456.5V89.09Z"/><rect class="539bce64-3290-44c5-8107-a2dfcbd8cf03" height="134.79" rx="11.23" ry="11.23" width="44.93" x="456.5" y="77.86"/><path class="2a76ade8-4281-45b6-9851-0a2ec625a62f" d="M222,68.58,255.56,35a11.26,11.26,0,0,0,0-15.88L239.68,3.28a11.27,11.27,0,0,0-15.88,0L222,5Z"/><polygon class="df74cab4-e60b-4863-b0d6-704480a0f536" points="255.56 35.05 222.03 68.58 222.03 89.09 309.61 89.09 255.56 35.05"/><polygon class="da3a6d81-fa3c-4993-a068-f58699e10928" points="408.62 201.41 456.5 201.41 456.5 89.09 309.61 89.09 222.03 89.09 222.03 201.41 263.1 201.41 408.62 201.41"/><path class="df74cab4-e60b-4863-b0d6-704480a0f536" d="M263.1,201.41l29,29A99.13,99.13,0,0,1,222,399.68V512A211,211,0,0,0,417.27,219.84q-3.91-9.43-8.66-18.42Z"/></g></svg>